<svg preserveAspectRatio="xMidYMid meet" data-bbox="13.817 25.351 466.883 129.291" viewBox="13.817 25.351 466.883 129.291" xmlns="http://www.w3.org/2000/svg" data-type="color" role="img" aria-label="CarbonSig logo">
    <g>
        <path d="M155.29 44.58c-17.81 16.77-32.91 30.18-59.22 79.27-5.64 10.52-9.61 15.1-16.76 15.71-3.44.3-6.15-1.96-7.61-3.33-3.8-3.58-17.73-33.07-22.66-37.79C43.46 93.12 59.86 79.63 67.46 85c5.19 3.66 15.72 30.52 17.38 30.44 1.57-.09 25.83-52.15 42.8-66.36a25.57 25.57 0 0 1 7.96-4.49c3.28-1.17 12.24-2.32 17.33-2.93 0-.01 5.53-.05 2.37 2.92Z" fill="#ffffff" data-color="1"></path>
        <path d="M81.34 154.54c-37.1 1.93-65.45-23.71-67.42-60.96-1.95-36.94 24.1-66.23 60.6-68.13 24.74-1.29 39.97 10.36 44.08 13.98l-4 5.79C109.84 41.19 95.55 30.93 74.87 32c-32.83 1.72-55.35 27.45-53.58 61.19 1.77 33.45 26.87 56.5 59.7 54.79 23.43-1.22 37-14.08 41.53-19.22l3.76 5.3c-3.67 4.14-18.68 19.11-44.94 20.48Z" fill="#ffffff" data-color="1"></path>
        <path d="M215.41 66.58c-2.85 8.06-8.65 14.5-21.85 14.5-15.49 0-24.19-10.79-24.19-24.51s9.67-24.75 24.45-24.75c13.51 0 19.75 7.15 21.75 14.87h-5.55c-2.37-5.59-6.55-10.22-16.27-10.22-11.5 0-18.68 8.38-18.68 19.92s7.22 20.07 18.75 20.07c9.6 0 13.35-4.16 16.15-9.87h5.42Z" fill="#ffffff" data-color="1"></path>
        <path d="M254.78 60.05c-6.21-13.68-9.12-20.04-10.2-23.13h-.07c-.96 2.97-4.42 11.32-9.55 23.13h19.82Zm-21.66 4.69-6.71 15.34h-5.64l20.85-47.27h6.28l21.63 47.27h-5.86l-6.98-15.34h-23.57Z" fill="#ffffff" data-color="1"></path>
        <path d="M283.93 54.53h15.06c7.96 0 11.95-2.75 11.95-8.84 0-5.56-4-8.27-11.67-8.27h-15.35v17.11Zm0 4.59V80.1h-5.34V32.82h21.85c9.42 0 16.02 4.17 16.02 12.64 0 5.6-2.67 9.78-8.82 11.3 3.47.9 7.56 3.4 7.56 11.61v2c0 3.73 0 7.81.55 9.73h-5.48c-.69-2.06-.54-5.87-.54-9.54v-1.58c0-7.59-3-9.85-11.74-9.85h-14.05Z" fill="#ffffff" data-color="1"></path>
        <path d="M334.74 75.56h15.75c5.95 0 12.52-1.8 12.52-9.11 0-6.22-5.06-9.33-13.4-9.33h-14.86v18.45Zm15.17-22.97c7.33 0 11.13-2.54 11.13-7.61 0-5.96-4.87-7.64-10.84-7.64h-15.46v15.25h15.17ZM329.4 32.81h21.98c9.88 0 15.3 4.25 15.3 11.8 0 6.03-4.18 9.06-7.9 10.07 4.22 1.07 9.91 3.98 9.91 11.63 0 9.63-8.13 13.77-16.69 13.77h-22.61V32.81Z" fill="#ffffff" data-color="1"></path>
        <path d="M382.73 56.08c0 10.51 6.74 20.35 19.23 20.35s18.97-8.99 18.97-19.98c0-10.19-6.81-19.97-19.38-19.97-11.63 0-18.82 9.05-18.82 19.61Zm43.9.23c0 13.43-9.19 24.76-24.78 24.76s-24.81-10.93-24.81-24.81c0-13.14 9.86-24.45 24.9-24.45 14.82 0 24.69 11.32 24.69 24.5Z" fill="#ffffff" data-color="1"></path>
        <path d="M438.66 80.08V32.81h6.46c9.96 13.26 28.1 36.08 30.72 40.73h.13c-.41-6.49-.35-13.56-.35-21.2V32.81h5.08v47.27h-6.14c-7.81-10.12-27.46-36.16-31.03-41.69h-.13c.35 6.15.35 12.85.35 21.2v20.5h-5.08Z" fill="#ffffff" data-color="1"></path>
        <path d="M174.87 133.57c1.83 5.95 6.15 10.18 15.94 10.18s13.92-3.99 13.92-8.77c0-5.04-2.75-8.19-15.67-10.34-13.7-2.3-17.25-6.52-17.25-12.98 0-8 7.62-12.72 17.74-12.72 15.26 0 18.68 7.96 19.22 12.53h-5.48c-1.05-3.46-3.2-8.04-13.86-8.04-7.23 0-12.11 2.49-12.11 7.7 0 4.18 1.94 6.93 13.29 8.79 16.94 2.81 19.7 8.07 19.7 14.52 0 7.34-5.93 13.74-19.8 13.74-12.86 0-19.6-5.86-21.17-14.61h5.53Z" fill="#ffffff" data-color="1"></path>
        <path fill="#ffffff" d="M227.81 99.92v47.28h-5.37V99.92h5.37z" data-color="1"></path>
        <path d="M286.66 144.78h-3.83c0-.25-.26-6.19-.3-7.12-1.89 4.8-9.12 10.54-18.41 10.54-14.93 0-24.3-9.61-24.3-24.53 0-13.94 9.36-24.74 24.91-24.74 11.78 0 17.83 6.04 20.32 11.93-1.87 1.25-4.57 2.96-4.57 2.96-2.08-4.99-6.36-10.22-15.77-10.22-12.54 0-19.19 8.66-19.19 19.75 0 11.66 6.92 20.24 19.18 20.24 9.55 0 14.66-8.53 15.49-10.73-.7-.06-10.17-.89-10.17-.89v-3.83l17.06-.4-.4 17.06Z" fill="#ffffff" data-color="1"></path>
    </g>
</svg>